<?xml version="1.0" standalone="no"?>
<!DOCTYPE svg PUBLIC "-//W3C//DTD SVG 20010904//EN"
 "http://www.w3.org/TR/2001/REC-SVG-20010904/DTD/svg10.dtd">
<svg version="1.0" xmlns="http://www.w3.org/2000/svg"
 width="225.000000pt" height="225.000000pt" viewBox="0 0 225.000000 225.000000"
 preserveAspectRatio="xMidYMid meet">
<metadata>
Created by potrace 1.11, written by Peter Selinger 2001-2013
</metadata>
<g transform="translate(0.000000,225.000000) scale(0.100000,-0.100000)"
fill="#000000" stroke="none">
<path d="M1205 1623 c-59 -109 -110 -202 -115 -207 -5 -4 -23 15 -42 43 -21
33 -40 51 -53 51 -11 0 -49 -25 -85 -56 l-65 -56 -67 5 c-48 4 -71 2 -80 -7
-7 -7 -145 -211 -307 -454 l-293 -441 -41 -3 c-47 -4 -68 -27 -48 -52 12 -14
49 -16 280 -16 l266 0 129 75 130 74 50 -29 c28 -16 87 -49 131 -74 44 -25 85
-46 92 -46 7 0 53 25 103 55 l90 55 90 -55 91 -55 383 0 c338 0 385 2 397 16
16 19 1 48 -27 52 -14 2 -109 169 -352 620 l-334 617 -91 43 c-51 23 -99 42
-109 42 -11 0 -51 -64 -123 -197z m348 -84 c42 -78 77 -146 77 -150 0 -4 -32
3 -72 17 -39 13 -78 24 -87 24 -8 0 -38 -22 -66 -50 l-50 -50 -70 56 c-39 30
-74 59 -79 64 -8 8 27 79 116 237 l29 51 62 -27 62 -28 78 -144z m-479 -246
l85 -126 -32 -44 c-17 -25 -36 -47 -40 -50 -5 -3 -39 24 -76 61 -36 36 -73 66
-82 66 -8 0 -56 -49 -106 -110 l-91 -110 -76 61 -75 60 77 116 77 116 65 -6
66 -6 55 49 c29 27 57 49 61 50 4 0 46 -57 92 -127z m194 14 c95 -76 90 -76
166 1 l48 50 103 -35 104 -34 210 -391 c116 -214 211 -392 211 -394 0 -2 -96
-4 -212 -4 l-213 1 -277 416 -277 416 15 29 c10 20 19 27 27 20 7 -5 50 -39
95 -75z m-180 -337 c6 0 35 29 63 66 l52 65 198 -298 199 -298 -56 -3 c-53 -3
-61 0 -160 58 l-103 62 -84 -51 c-46 -28 -91 -53 -100 -57 -10 -4 -64 21 -143
67 -70 40 -133 72 -140 72 -7 0 -73 -34 -147 -76 l-135 -77 -176 0 -176 0 180
271 181 270 42 -33 c23 -19 63 -51 88 -71 25 -20 55 -37 66 -37 13 0 50 36
108 105 l89 106 70 -71 c40 -38 77 -70 84 -70z"/>
</g>
</svg>
